<?xml version="1.0" standalone="no"?>
<!DOCTYPE svg PUBLIC "-//W3C//DTD SVG 20010904//EN"
 "http://www.w3.org/TR/2001/REC-SVG-20010904/DTD/svg10.dtd">
<svg version="1.0" xmlns="http://www.w3.org/2000/svg"
 width="1024px" height="1024px" viewBox="0 0 820.000000 605.000000"
 preserveAspectRatio="xMidYMid meet">

<g transform="translate(0.000000,605.000000) scale(0.100000,-0.100000)"
fill="#000000" stroke="none">
<path d="M3827 5639 c-439 -46 -878 -211 -1231 -462 -598 -424 -974 -1038
-1093 -1782 -25 -156 -25 -584 0 -740 47 -293 125 -542 247 -790 197 -401 478
-731 846 -992 552 -393 1262 -553 1939 -438 375 64 753 220 1059 438 598 424
974 1038 1093 1782 25 156 25 584 0 740 -47 293 -125 542 -247 790 -127 260
-271 464 -469 669 -439 451 -995 721 -1621 786 -111 11 -411 11 -523 -1z m693
-208 c223 -39 482 -122 607 -193 102 -57 108 -68 222 -373 109 -295 147 -494
138 -722 -6 -163 -28 -255 -91 -388 -48 -101 -89 -154 -189 -246 -67 -61 -69
-62 -87 -43 -22 22 -75 116 -110 194 -36 83 -262 487 -352 632 -94 153 -279
400 -416 558 -206 238 -348 358 -580 490 -90 51 -93 54 -70 66 22 12 126 38
193 48 17 2 163 3 325 1 245 -2 315 -6 410 -24z m-1108 -105 c154 -30 286
-111 498 -310 173 -161 268 -266 400 -441 107 -142 321 -464 392 -590 110
-194 195 -359 245 -474 51 -120 52 -125 36 -144 -47 -51 -214 -110 -423 -149
-87 -16 -156 -22 -285 -22 -167 -1 -172 0 -308 37 -486 134 -854 300 -1202
543 -334 233 -631 358 -767 323 -64 -17 -118 -22 -118 -12 0 16 121 226 180
312 222 323 508 581 869 786 101 57 183 91 315 130 98 29 80 28 168 11z m2087
-326 c220 -118 611 -610 800 -1009 70 -146 82 -180 78 -210 -21 -148 -202
-413 -462 -676 -147 -148 -219 -208 -389 -324 -99 -67 -121 -79 -129 -66 -11
20 -216 563 -223 590 -4 16 5 25 43 45 164 86 301 254 368 450 87 256 68 618
-52 970 -23 67 -38 107 -90 228 -7 17 -10 32 -7 32 3 0 32 -14 63 -30z m-3299
-1064 c99 -26 251 -104 390 -202 184 -128 313 -205 515 -304 323 -159 838
-348 1010 -371 242 -32 721 53 877 156 l36 24 26 -20 c36 -29 77 -121 147
-331 34 -101 68 -196 76 -211 19 -39 11 -58 -53 -116 -120 -110 -417 -285
-685 -405 -799 -357 -1513 -543 -2099 -549 -112 -1 -199 3 -241 11 -85 18
-173 67 -210 117 -29 40 -127 255 -199 435 -159 399 -194 984 -84 1399 13 52
31 125 39 162 7 38 26 89 40 113 26 45 37 52 168 109 35 15 152 7 247 -17z
m4265 -418 c21 -48 45 -155 77 -348 16 -97 4 -392 -21 -525 -27 -146 -81 -339
-126 -455 -67 -170 -184 -375 -221 -387 -7 -2 -38 33 -69 77 -67 95 -83 111
-150 155 -111 72 -276 107 -359 75 -16 -6 -30 -9 -31 -8 -6 6 -115 452 -113
459 2 4 54 41 116 83 211 140 451 357 619 557 78 92 211 286 232 337 7 18 15
32 18 32 2 0 15 -24 28 -52z m-1071 -1250 c25 -108 46 -203 46 -212 0 -9 -74
-98 -164 -198 -347 -386 -531 -616 -656 -823 -168 -276 -263 -391 -368 -442
-54 -27 -63 -28 -192 -27 -535 5 -1300 305 -1635 641 -76 76 -235 261 -235
272 0 3 114 6 253 6 265 1 370 11 667 61 295 51 484 104 911 259 343 125 411
154 599 252 315 164 361 190 540 298 102 61 186 111 187 111 1 -1 22 -90 47
-198z m399 -298 c91 -28 133 -72 197 -207 46 -96 51 -113 46 -153 -8 -60 -44
-132 -103 -205 -48 -60 -289 -275 -308 -275 -6 0 -10 103 -11 288 -1 176 -7
339 -16 422 -8 74 -13 138 -11 143 8 15 142 7 206 -13z m-340 -102 c41 -31 65
-301 48 -541 -12 -165 -32 -267 -61 -315 -74 -121 -637 -366 -917 -399 l-55
-6 16 31 c24 46 247 377 372 552 60 84 162 216 227 294 149 177 340 395 348
396 3 0 13 -6 22 -12z"/>
</g>
</svg>
