<?xml version="1.0" standalone="no"?>
<!DOCTYPE svg PUBLIC "-//W3C//DTD SVG 20010904//EN"
 "http://www.w3.org/TR/2001/REC-SVG-20010904/DTD/svg10.dtd">
<svg version="1.0" xmlns="http://www.w3.org/2000/svg"
 width="1024px" height="1024px" viewBox="0 0 980.000000 980.000000"
 preserveAspectRatio="xMidYMid meet">

<g transform="translate(0.000000,980.000000) scale(0.100000,-0.100000)"
fill="#000000" stroke="none">
<path d="M2448 8580 c-299 -27 -509 -139 -646 -344 -102 -152 -153 -326 -207
-699 -46 -321 -59 -533 -51 -857 5 -249 14 -386 52 -875 8 -110 19 -423 24
-695 6 -272 14 -524 20 -560 31 -200 93 -346 194 -457 35 -39 71 -91 80 -115
17 -43 17 -47 -3 -101 -27 -77 -75 -153 -171 -272 -45 -55 -100 -125 -123
-155 -48 -63 -127 -163 -358 -450 -327 -406 -472 -645 -543 -893 -131 -453 47
-701 565 -792 73 -13 537 -15 3544 -15 3693 0 3533 -2 3810 46 258 44 422 156
472 324 23 73 21 241 -2 346 -40 183 -136 392 -270 593 -95 141 -152 218 -375
496 -97 121 -196 247 -220 280 -24 33 -84 109 -132 169 -144 176 -211 286
-224 364 -8 49 9 84 87 174 35 40 77 106 103 160 103 213 121 381 136 1248 6
316 17 701 25 855 24 462 28 705 16 900 -24 364 -80 627 -190 879 -59 136
-177 265 -299 329 -169 89 -301 110 -652 106 -663 -7 -4147 2 -4298 11 -185
11 -236 11 -364 0z m1112 -180 c918 6 2194 5 3175 -2 813 -6 805 -6 938 -75
198 -105 330 -347 381 -703 39 -267 47 -884 20 -1565 -8 -214 -17 -604 -19
-865 -2 -261 -7 -504 -10 -540 -25 -264 -136 -451 -326 -550 -129 -67 -283
-97 -644 -125 -409 -31 -632 -37 -1545 -42 -1111 -6 -2010 12 -2390 48 -58 5
-244 14 -415 19 -333 10 -450 23 -561 65 -236 89 -350 243 -394 531 -6 38 -15
317 -20 619 -9 555 -18 822 -45 1305 -17 308 -20 733 -5 881 26 259 77 455
161 620 94 184 213 294 371 344 109 34 221 44 413 36 88 -3 500 -4 915 -1z
m-1034 -4550 c135 -22 560 -54 917 -70 161 -7 344 -7 570 -1 210 7 467 7 702
1 764 -19 1160 -22 1380 -11 839 42 1048 56 1235 86 112 18 220 19 275 4 60
-17 154 -120 276 -304 59 -88 211 -288 338 -445 333 -410 456 -584 565 -800
41 -80 100 -229 94 -236 -2 -1 -35 1 -73 6 -257 32 -1400 49 -2830 44 -1207
-5 -3319 -22 -4192 -34 -386 -6 -716 -7 -735 -4 -58 9 -118 26 -118 33 0 11
115 195 223 356 97 145 234 336 519 725 75 102 174 244 220 315 137 210 213
298 293 336 54 25 183 25 341 -1z m6321 -1978 c49 -26 63 -47 63 -97 0 -247
-566 -324 -2060 -281 -410 11 -732 14 -1300 9 -554 -4 -1007 -1 -1700 12 -718
13 -1052 16 -1390 9 -1009 -20 -1247 -6 -1437 87 -69 33 -108 73 -122 124 -11
43 1 95 29 120 50 45 -105 44 3995 42 l3880 -2 42 -23z"/>
<path d="M6540 8284 c-47 -2 -260 -16 -475 -31 -356 -26 -435 -28 -910 -27
-286 1 -740 9 -1010 18 -711 24 -1404 31 -1547 17 -444 -44 -651 -228 -707
-631 -17 -116 -40 -422 -51 -670 -21 -469 -9 -1661 21 -2050 22 -293 90 -478
232 -627 70 -73 146 -109 309 -147 302 -70 395 -76 1313 -86 446 -5 1086 -14
1423 -19 806 -14 1378 -1 1802 39 256 25 525 86 650 147 138 67 246 202 298
373 33 108 41 232 46 700 3 245 10 522 15 615 34 591 42 1110 21 1380 -14 178
-45 404 -66 474 -61 212 -228 374 -464 449 -86 28 -201 49 -330 62 -117 12
-440 19 -570 14z m-1365 -182 l2050 -7 98 -27 c249 -68 361 -185 406 -423 45
-230 71 -580 71 -940 0 -121 -9 -452 -20 -735 -11 -283 -20 -669 -20 -856 1
-274 -2 -357 -15 -420 -45 -221 -161 -334 -417 -408 -253 -73 -923 -106 -2143
-106 -1343 0 -2268 43 -2678 125 -243 48 -373 147 -428 324 -59 193 -101 1182
-80 1876 18 585 50 911 116 1170 55 217 93 281 202 338 85 44 225 83 348 96
50 5 173 7 275 4 102 -2 1108 -7 2235 -11z"/>
<path d="M6280 7553 c-143 -24 -311 -116 -601 -330 -52 -38 -215 -152 -364
-253 -250 -170 -377 -258 -1090 -755 -238 -166 -506 -348 -645 -437 -409 -263
-482 -315 -509 -370 -18 -37 -19 -44 -6 -69 9 -17 26 -30 45 -34 57 -12 124
27 535 319 94 66 492 332 885 592 393 259 814 539 935 622 121 84 262 178 313
209 215 133 361 234 422 290 65 61 123 144 135 196 8 29 4 30 -55 20z"/>
<path d="M4985 7299 c-85 -43 -153 -90 -365 -251 -75 -57 -239 -175 -365 -263
-234 -163 -359 -272 -384 -333 -19 -46 -3 -78 47 -91 44 -12 82 -4 146 32 47
26 309 214 391 281 302 245 548 465 581 521 30 51 46 113 36 132 -6 9 -28 2
-87 -28z"/>
<path d="M2460 3703 c0 -5 -44 -54 -98 -109 l-97 -101 -107 -28 c-104 -27
-108 -29 -108 -55 0 -26 5 -29 68 -44 37 -10 74 -21 82 -26 15 -9 18 -6 -132
-198 -48 -62 -88 -115 -88 -117 0 -3 20 -5 45 -5 25 0 45 -2 45 -5 0 -3 -20
-55 -45 -114 -65 -158 -86 -245 -83 -333 4 -90 16 -95 82 -37 55 49 72 80 116
214 55 168 93 220 181 245 50 15 139 13 139 -2 0 -7 -27 -92 -60 -189 -67
-195 -82 -265 -68 -315 17 -64 78 -72 137 -19 50 45 75 104 107 256 28 133 60
209 99 235 13 9 69 23 122 30 166 25 197 37 214 82 23 60 -39 92 -193 100 -60
3 -108 9 -108 13 0 5 5 42 11 82 l11 74 77 7 c151 13 181 19 181 31 0 7 -18
29 -39 48 -40 36 -93 57 -145 57 -24 0 -27 3 -23 23 3 12 9 39 13 61 8 46 29
49 -206 -39 -91 -34 -166 -59 -168 -54 -2 4 10 57 27 117 17 59 31 111 31 115
0 9 -20 9 -20 0z m120 -380 c-1 -53 -67 -141 -120 -161 -34 -13 -147 -25 -159
-17 -13 7 20 98 46 127 35 39 108 63 201 67 24 1 32 -3 32 -16z"/>
<path d="M6801 3656 c-30 -17 -39 -38 -40 -88 -1 -38 -1 -38 -43 -38 -24 0
-81 14 -128 31 -47 17 -109 40 -139 51 -78 28 -118 19 -140 -33 -11 -27 -22
-39 -36 -39 -11 0 -103 16 -205 35 -102 19 -205 35 -230 35 -25 0 -137 -12
-250 -25 -113 -14 -293 -30 -400 -35 -234 -13 -280 -18 -280 -32 0 -6 20 -31
45 -54 73 -71 114 -78 395 -70 199 6 244 5 295 -9 67 -18 114 -50 143 -97 22
-36 48 -125 39 -135 -3 -3 -46 3 -94 12 -112 23 -726 34 -816 15 -105 -21
-121 -60 -43 -105 96 -56 139 -60 529 -57 339 2 360 1 403 -17 37 -17 49 -29
69 -73 30 -67 63 -262 45 -273 -11 -7 -493 12 -696 27 -131 9 -168 9 -193 -2
-51 -21 -56 -88 -8 -124 25 -19 47 -21 320 -28 160 -5 368 -12 462 -16 l170
-7 11 -80 c22 -149 56 -237 100 -257 21 -10 32 -8 60 7 20 10 42 31 50 46 19
38 17 120 -5 206 -10 40 -16 74 -13 77 10 10 266 6 305 -5 70 -19 104 -60 137
-166 16 -53 41 -110 54 -128 29 -37 87 -68 111 -59 38 15 46 121 19 250 -8 42
-13 79 -9 82 3 3 66 5 139 5 205 -1 267 -28 322 -136 31 -61 88 -107 132 -107
42 0 58 91 39 217 l-8 53 103 -6 c179 -11 319 24 359 90 34 56 34 56 -151 56
-236 0 -304 17 -383 97 -42 41 -105 162 -114 216 l-5 33 179 24 c138 20 178
28 178 40 0 21 -115 57 -226 69 -121 14 -174 32 -222 79 -37 35 -77 99 -77
122 0 6 41 10 113 10 63 0 135 6 164 14 66 18 131 54 139 78 9 29 -23 68 -74
90 -42 19 -58 20 -189 13 -174 -8 -198 -2 -273 71 -60 58 -100 73 -139 50z
m-461 -303 c7 -8 50 -183 50 -205 0 -14 -224 -4 -265 12 -37 14 -72 46 -91 83
-16 29 -36 125 -30 136 6 9 327 -15 336 -26z m435 -37 c53 -23 84 -52 106
-104 32 -75 37 -72 -135 -72 l-154 0 -10 33 c-6 17 -15 55 -22 82 -7 28 -14
59 -17 69 -5 18 0 19 94 14 57 -4 115 -13 138 -22z m-459 -342 c76 -19 122
-56 156 -126 24 -48 71 -208 64 -215 -6 -6 -401 19 -407 26 -10 9 -52 318 -45
329 8 14 158 4 232 -14z m527 4 c83 -16 153 -62 199 -130 38 -55 111 -209 103
-217 -11 -10 -126 -31 -174 -31 -119 0 -198 53 -255 173 -47 98 -80 208 -65
217 14 9 117 3 192 -12z"/>
</g>
</svg>
