<?xml version="1.0" standalone="no"?>
<!DOCTYPE svg PUBLIC "-//W3C//DTD SVG 20010904//EN"
 "http://www.w3.org/TR/2001/REC-SVG-20010904/DTD/svg10.dtd">
<svg version="1.0" xmlns="http://www.w3.org/2000/svg"
 width="1024px" height="1024px" viewBox="0 0 340.000000 480.000000"
 preserveAspectRatio="xMidYMid meet">

<g transform="translate(0.000000,480.000000) scale(0.100000,-0.100000)"
fill="#000000" stroke="none">
<path d="M1815 4741 c-22 -10 -51 -30 -64 -44 -18 -20 -28 -24 -45 -18 -51 20
-99 -30 -99 -102 0 -17 -8 -40 -18 -50 -20 -21 -32 -76 -23 -101 3 -9 2 -16
-3 -16 -14 0 -33 -46 -33 -78 0 -15 -9 -45 -20 -67 -11 -22 -20 -54 -20 -72 0
-18 -4 -33 -9 -33 -12 0 -31 -56 -31 -94 0 -17 -7 -40 -15 -50 -8 -11 -15 -35
-15 -54 0 -29 10 -44 56 -91 31 -31 62 -65 69 -76 18 -27 -17 -1848 -35 -1871
-17 -20 -69 -18 -110 5 -51 27 -80 90 -89 195 -9 91 -17 108 -64 133 -67 34
-159 -12 -203 -103 -24 -50 -28 -70 -32 -183 -5 -148 9 -233 66 -406 32 -97
37 -122 37 -210 l0 -100 -62 -142 c-243 -556 -203 -849 141 -1012 135 -65 292
-86 584 -78 180 4 220 8 305 30 134 36 219 80 292 152 93 91 125 178 125 334
0 132 -31 242 -132 471 -101 229 -104 280 -24 464 58 132 70 183 63 259 -16
163 -92 254 -187 223 -43 -14 -73 -57 -89 -130 -27 -123 -142 -187 -211 -118
-27 28 -28 30 -34 188 -3 87 -11 545 -18 1016 -9 676 -9 866 1 898 14 46 70
114 113 136 26 13 28 19 28 70 0 31 -17 124 -40 214 -22 88 -40 165 -40 173 0
8 17 26 38 40 104 68 93 239 -18 295 -53 27 -82 27 -135 3z m124 -46 c34 -17
56 -65 56 -121 0 -47 -18 -73 -77 -110 -21 -14 -38 -32 -38 -41 0 -9 20 -99
45 -200 25 -100 45 -192 45 -203 0 -13 -23 -42 -59 -76 -41 -38 -65 -70 -81
-109 l-22 -55 -104 0 c-64 0 -104 4 -104 10 0 6 -18 30 -40 54 l-39 43 110
363 c60 199 119 376 131 392 44 62 117 84 177 53z m-223 -82 c9 -34 -28 -73
-54 -57 -34 23 -3 102 34 87 8 -3 17 -16 20 -30z m-43 -136 c7 -23 6 -31 -9
-42 -39 -30 -73 1 -55 48 14 37 51 34 64 -6z m-45 -99 c19 -19 14 -55 -9 -72
-41 -28 -65 1 -43 52 14 33 32 40 52 20z m-27 -144 c7 -21 6 -31 -8 -46 -22
-25 -57 -20 -61 9 -8 56 49 87 69 37z m-43 -127 c12 -25 12 -30 -5 -43 -42
-33 -80 6 -53 56 15 28 42 22 58 -13z m-40 -99 c18 -18 15 -53 -7 -72 -38 -34
-68 14 -41 65 12 22 30 25 48 7z m288 -251 c4 -4 -42 -7 -102 -7 -60 0 -103 4
-97 8 16 10 189 9 199 -1z m4 -113 l0 -82 -102 1 -103 2 -3 74 c-2 46 1 77 8
81 6 4 53 7 105 7 l95 0 0 -83z m0 -169 l0 -76 -102 3 -103 3 -3 73 -3 72 106
0 105 0 0 -75z m0 -156 l0 -69 -110 0 -110 0 0 51 c0 83 4 86 120 87 l100 0 0
-69z m0 -151 c0 -54 -3 -68 -15 -68 -8 0 -16 10 -16 23 l-2 22 -4 -22 c-4 -21
-9 -22 -94 -21 l-89 0 0 63 c0 37 5 65 11 67 6 2 55 4 110 4 l99 1 0 -69z
m-38 -136 l2 -57 3 58 c3 48 7 58 21 55 14 -3 17 -15 17 -63 l0 -60 -100 0
c-55 -1 -106 1 -112 3 -9 3 -13 25 -13 62 l0 58 90 0 90 1 2 -57z m0 -119 l1
-38 4 38 c3 28 9 37 23 37 18 0 19 -8 17 -117 l-2 -118 -100 -1 c-136 -2 -135
-3 -135 57 0 37 4 49 15 49 8 0 15 5 15 10 0 6 -7 10 -16 10 -11 0 -14 5 -10
16 3 9 6 33 6 55 l0 39 90 0 90 0 2 -37z m48 -263 l0 -50 -120 1 -120 2 0 48
0 49 120 0 120 0 0 -50z m0 -111 l0 -49 -120 1 -120 2 0 46 0 47 120 1 120 1
0 -49z m8 -106 l3 -43 -125 0 -126 0 0 43 0 44 123 -1 122 -1 3 -42z m-3 -98
l0 -40 -92 -3 -93 -3 -2 33 -1 33 -4 -32 c-4 -29 -8 -33 -34 -33 -27 0 -29 2
-29 39 0 48 -1 48 145 47 l109 -1 1 -40z m0 -95 c0 -26 -5 -36 -19 -38 -10 -2
-22 2 -27 10 -5 8 -9 9 -9 2 0 -8 -23 -12 -65 -12 -53 0 -65 3 -66 17 -1 14
-2 13 -6 -2 -3 -12 -13 -17 -34 -15 -26 2 -29 6 -29 39 l0 38 128 -2 127 -2 0
-35z m-581 -33 c13 -9 19 -34 25 -97 4 -48 17 -105 28 -131 40 -90 168 -148
231 -103 22 15 22 15 22 -40 0 -31 -1 -56 -2 -56 -2 0 -25 7 -52 15 -44 13
-52 13 -73 0 -35 -24 -38 -58 -12 -153 18 -64 24 -112 24 -182 -1 -90 -4 -104
-64 -278 -60 -174 -63 -187 -59 -262 3 -68 7 -84 33 -122 38 -53 102 -87 170
-90 43 -1 45 -2 13 -5 l-38 -4 0 -115 0 -114 208 2 207 3 0 110 0 110 -30 7
c-17 4 2 6 46 4 103 -6 114 -11 332 -179 60 -46 108 -50 133 -12 13 20 16 41
12 93 -5 68 -18 104 -164 452 -46 110 -48 120 -48 210 -1 91 1 99 43 195 52
117 71 189 70 265 -1 114 -44 170 -68 88 -20 -68 -72 -158 -105 -183 -62 -47
-186 -57 -243 -20 -17 11 -23 25 -23 51 l0 36 35 -31 c30 -26 44 -31 87 -31
97 0 162 59 192 172 20 76 32 97 62 104 68 17 116 -60 122 -197 4 -76 1 -93
-23 -150 -121 -288 -122 -322 -15 -561 114 -253 151 -404 131 -547 -6 -44 -21
-102 -33 -128 -53 -113 -197 -206 -378 -243 -184 -38 -523 -35 -696 5 -140 32
-293 132 -349 229 -94 162 -65 390 96 767 32 75 63 158 69 185 16 69 4 160
-40 299 -55 176 -64 227 -64 360 1 147 14 197 64 247 41 41 89 51 124 25z
m586 -30 c0 -7 3 -22 6 -34 l6 -23 -136 0 -136 0 0 34 0 35 130 0 c93 0 130
-4 130 -12z m-12 -73 c17 -3 22 -11 22 -34 0 -17 -3 -31 -7 -31 -5 -1 -65 -3
-135 -4 l-128 -1 0 36 0 37 113 1 c61 0 122 -1 135 -4z m22 -113 c0 -20 -6
-31 -17 -34 -16 -4 -205 -3 -240 2 -7 0 -13 14 -13 31 l0 30 135 0 135 0 0
-29z m0 -76 c0 -31 -14 -34 -157 -32 l-113 1 0 28 0 28 135 0 135 0 0 -25z m0
-70 c0 -24 -3 -25 -55 -25 -50 0 -55 2 -56 23 l-2 22 -4 -22 c-4 -22 -9 -23
-84 -23 -70 0 -79 2 -79 18 0 10 3 22 7 25 3 4 66 7 140 7 l133 0 0 -25z m445
-79 c8 -62 -8 -164 -33 -220 -63 -136 -75 -174 -80 -248 -6 -93 13 -160 95
-347 115 -261 144 -377 107 -429 -28 -40 -61 -29 -164 53 -179 143 -188 146
-485 146 -126 1 -248 5 -270 11 -79 20 -134 100 -135 198 0 62 19 133 80 300
57 157 63 250 26 401 -31 126 -26 159 24 159 17 0 46 -6 65 -14 l34 -15 3 -78
3 -78 35 -16 c64 -31 207 -21 249 17 10 9 22 8 55 -7 80 -36 182 -20 248 39
40 36 87 121 102 187 7 28 8 29 21 11 8 -10 17 -41 20 -70z m-452 35 c4 0 7
-10 7 -21 0 -26 -21 -30 -160 -27 -110 2 -115 3 -118 24 -2 14 3 23 15 25 16
4 237 3 256 -1z m7 -86 c0 -24 -3 -25 -55 -25 -50 0 -55 2 -56 23 0 15 -2 17
-6 7 -10 -25 -24 -29 -95 -29 -65 0 -68 1 -68 25 l0 24 140 0 140 0 0 -25z m0
-55 c0 -25 11 -23 -147 -25 -131 -2 -133 -2 -133 20 0 21 3 22 140 23 134 2
140 1 140 -18z m-17 -51 c-32 -32 -205 -31 -237 1 -7 7 31 10 119 10 92 0 126
-3 118 -11z m-220 -906 c-7 -2 -19 -2 -25 0 -7 3 -2 5 12 5 14 0 19 -2 13 -5z
m60 0 c-7 -2 -21 -2 -30 0 -10 3 -4 5 12 5 17 0 24 -2 18 -5z m50 0 c-7 -2
-19 -2 -25 0 -7 3 -2 5 12 5 14 0 19 -2 13 -5z m54 1 c-3 -3 -12 -4 -19 -1 -8
3 -5 6 6 6 11 1 17 -2 13 -5z m56 -1 c-7 -2 -19 -2 -25 0 -7 3 -2 5 12 5 14 0
19 -2 13 -5z m72 -118 l0 -100 -195 0 -195 0 -3 89 c-2 49 0 95 2 103 5 11 44
13 198 11 l193 -3 0 -100z"/>
<path d="M1764 4099 c-3 -6 -2 -15 3 -20 5 -5 9 -1 9 11 0 23 -2 24 -12 9z"/>
<path d="M1804 4090 c0 -13 4 -16 10 -10 7 7 7 13 0 20 -6 6 -10 3 -10 -10z"/>
<path d="M1722 3320 c0 -14 2 -19 5 -12 2 6 2 18 0 25 -3 6 -5 1 -5 -13z"/>
<path d="M1643 3170 c0 -30 2 -43 4 -27 2 15 2 39 0 55 -2 15 -4 2 -4 -28z"/>
<path d="M1683 3015 c0 -22 2 -30 4 -17 2 12 2 30 0 40 -3 9 -5 -1 -4 -23z"/>
<path d="M1721 3024 c0 -11 3 -14 6 -6 3 7 2 16 -1 19 -3 4 -6 -2 -5 -13z"/>
<path d="M1682 2915 c0 -16 2 -22 5 -12 2 9 2 23 0 30 -3 6 -5 -1 -5 -18z"/>
<path d="M1630 2830 c0 -5 5 -10 10 -10 6 0 10 5 10 10 0 6 -4 10 -10 10 -5 0
-10 -4 -10 -10z"/>
<path d="M1665 2830 c-4 -6 5 -10 20 -10 15 0 24 4 20 10 -3 6 -12 10 -20 10
-8 0 -17 -4 -20 -10z"/>
<path d="M1720 2830 c0 -5 5 -10 10 -10 6 0 10 5 10 10 0 6 -4 10 -10 10 -5 0
-10 -4 -10 -10z"/>
<path d="M1755 2830 c-4 -6 5 -10 20 -10 15 0 24 4 20 10 -3 6 -12 10 -20 10
-8 0 -17 -4 -20 -10z"/>
<path d="M1681 2764 c0 -11 3 -14 6 -6 3 7 2 16 -1 19 -3 4 -6 -2 -5 -13z"/>
<path d="M1721 2764 c0 -11 3 -14 6 -6 3 7 2 16 -1 19 -3 4 -6 -2 -5 -13z"/>
<path d="M1682 2535 c0 -16 2 -22 5 -12 2 9 2 23 0 30 -3 6 -5 -1 -5 -18z"/>
<path d="M1721 2534 c0 -11 3 -14 6 -6 3 7 2 16 -1 19 -3 4 -6 -2 -5 -13z"/>
<path d="M1625 2250 c3 -5 8 -10 11 -10 2 0 4 5 4 10 0 6 -5 10 -11 10 -5 0
-7 -4 -4 -10z"/>
<path d="M2016 583 c-11 -11 -6 -23 9 -23 8 0 15 4 15 9 0 13 -16 22 -24 14z"/>
<path d="M2191 513 c7 -12 15 -20 18 -17 3 2 -3 12 -13 22 -17 16 -18 16 -5
-5z"/>
<path d="M2090 421 c0 -10 19 -25 25 -20 1 2 -3 10 -11 17 -8 7 -14 8 -14 3z"/>
<path d="M2290 325 c0 -9 5 -15 11 -13 6 2 11 8 11 13 0 5 -5 11 -11 13 -6 2
-11 -4 -11 -13z"/>
<path d="M1681 1984 c0 -11 3 -14 6 -6 3 7 2 16 -1 19 -3 4 -6 -2 -5 -13z"/>
<path d="M1721 1984 c0 -11 3 -14 6 -6 3 7 2 16 -1 19 -3 4 -6 -2 -5 -13z"/>
<path d="M1525 1494 c-31 -33 -31 -39 0 -69 24 -24 28 -25 184 -25 l160 0 20
26 c27 34 26 40 -4 69 -24 24 -28 25 -180 25 -156 0 -156 0 -180 -26z m348 4
c21 -11 23 -61 3 -77 -22 -19 -322 -14 -341 6 -21 20 -19 49 5 66 24 16 302
21 333 5z"/>
<path d="M1567 1466 c-3 -8 -2 -18 3 -21 13 -8 24 15 12 27 -6 6 -11 4 -15 -6z"/>
<path d="M1620 1454 c0 -8 5 -12 10 -9 6 3 10 10 10 16 0 5 -4 9 -10 9 -5 0
-10 -7 -10 -16z"/>
<path d="M1670 1455 c0 -8 5 -15 10 -15 6 0 10 7 10 15 0 8 -4 15 -10 15 -5 0
-10 -7 -10 -15z"/>
<path d="M1720 1455 c0 -9 5 -15 11 -13 6 2 11 8 11 13 0 5 -5 11 -11 13 -6 2
-11 -4 -11 -13z"/>
<path d="M1772 1459 c2 -6 8 -10 13 -10 5 0 11 4 13 10 2 6 -4 11 -13 11 -9 0
-15 -5 -13 -11z"/>
<path d="M1822 1459 c2 -6 8 -10 13 -10 5 0 11 4 13 10 2 6 -4 11 -13 11 -9 0
-15 -5 -13 -11z"/>
<path d="M1608 1222 c-58 -2 -70 -6 -87 -28 -16 -20 -18 -30 -9 -49 5 -12 20
-27 32 -32 11 -5 90 -8 175 -7 147 1 156 2 173 24 22 27 22 39 2 65 -13 17
-30 21 -117 25 -56 3 -132 4 -169 2z m270 -24 c16 -16 15 -53 -2 -67 -9 -8
-65 -11 -176 -9 -139 3 -164 5 -173 20 -8 12 -8 24 1 42 l12 26 163 0 c113 0
167 -4 175 -12z"/>
<path d="M1566 1172 c-3 -6 -1 -14 5 -17 15 -10 25 3 12 16 -7 7 -13 7 -17 1z"/>
<path d="M1620 1165 c0 -8 5 -15 10 -15 6 0 10 7 10 15 0 8 -4 15 -10 15 -5 0
-10 -7 -10 -15z"/>
<path d="M1670 1165 c0 -8 5 -15 10 -15 6 0 10 7 10 15 0 8 -4 15 -10 15 -5 0
-10 -7 -10 -15z"/>
<path d="M1720 1165 c0 -9 5 -15 11 -13 6 2 11 8 11 13 0 5 -5 11 -11 13 -6 2
-11 -4 -11 -13z"/>
<path d="M1775 1169 c-10 -15 3 -25 16 -12 7 7 7 13 1 17 -6 3 -14 1 -17 -5z"/>
<path d="M1826 1172 c-3 -6 -1 -14 5 -17 15 -10 25 3 12 16 -7 7 -13 7 -17 1z"/>
<path d="M2101 1023 c7 -12 15 -20 18 -17 3 2 -3 12 -13 22 -17 16 -18 16 -5
-5z"/>
<path d="M2160 956 c0 -2 8 -10 18 -17 15 -13 16 -12 3 4 -13 16 -21 21 -21
13z"/>
<path d="M1537 929 c-15 -11 -27 -29 -27 -40 0 -21 47 -72 60 -64 4 3 68 -6
141 -19 137 -24 170 -23 183 9 24 64 -18 91 -169 109 -77 9 -128 17 -146 22
-9 2 -28 -5 -42 -17z m200 -20 c70 -11 133 -25 140 -31 18 -15 16 -53 -3 -69
-15 -12 -93 -6 -204 16 -14 3 -45 8 -70 11 -68 9 -101 49 -68 82 17 17 59 15
205 -9z"/>
<path d="M1565 891 c-6 -11 9 -23 19 -14 9 9 7 23 -3 23 -6 0 -12 -4 -16 -9z"/>
<path d="M1620 874 c0 -8 5 -12 10 -9 6 3 10 10 10 16 0 5 -4 9 -10 9 -5 0
-10 -7 -10 -16z"/>
<path d="M1670 870 c0 -19 3 -21 12 -12 9 9 9 15 0 24 -9 9 -12 7 -12 -12z"/>
<path d="M1720 865 c0 -9 5 -15 11 -13 6 2 11 8 11 13 0 5 -5 11 -11 13 -6 2
-11 -4 -11 -13z"/>
<path d="M1775 859 c-10 -15 3 -25 16 -12 7 7 7 13 1 17 -6 3 -14 1 -17 -5z"/>
<path d="M1826 851 c-4 -5 -2 -12 3 -15 5 -4 12 -2 15 3 4 5 2 12 -3 15 -5 4
-12 2 -15 -3z"/>
<path d="M2013 880 c-69 -28 -49 -140 25 -140 33 0 72 25 72 47 0 11 -6 8 -21
-11 -40 -50 -116 -22 -106 41 4 27 4 27 6 2 2 -39 35 -65 69 -53 30 11 42 55
21 80 -14 17 -60 19 -77 2 -7 -7 -12 -8 -12 -2 0 6 11 16 25 22 33 15 72 0 85
-33 11 -29 20 -34 13 -6 -10 40 -61 66 -100 51z m62 -64 c0 -36 -27 -56 -52
-40 -40 25 -20 77 26 72 21 -2 26 -8 26 -32z"/>
<path d="M2225 695 c-14 -13 -25 -36 -25 -50 0 -33 42 -75 75 -75 33 0 75 42
75 75 0 33 -42 75 -75 75 -14 0 -37 -11 -50 -25z m95 -5 c39 -39 11 -110 -44
-110 -25 0 -66 41 -66 65 0 7 9 24 21 39 25 31 61 34 89 6z"/>
<path d="M2242 678 c-28 -28 -7 -78 33 -78 27 0 45 18 45 45 0 12 -5 26 -12
33 -7 7 -21 12 -33 12 -12 0 -26 -5 -33 -12z m63 -33 c0 -25 -4 -30 -24 -30
-32 0 -49 28 -31 50 7 9 23 15 34 13 16 -2 21 -10 21 -33z"/>
<path d="M1720 649 c0 -5 5 -7 10 -4 6 3 10 8 10 11 0 2 -4 4 -10 4 -5 0 -10
-5 -10 -11z"/>
<path d="M1758 638 c5 -5 16 -8 23 -6 8 3 3 7 -10 11 -17 4 -21 3 -13 -5z"/>
<path d="M1813 575 c-3 -9 -3 -19 1 -22 3 -4 6 1 6 10 0 8 10 18 23 20 l22 4
-23 2 c-12 0 -25 -6 -29 -14z"/>
<path d="M1641 564 c0 -11 3 -14 6 -6 3 7 2 16 -1 19 -3 4 -6 -2 -5 -13z"/>
<path d="M1575 560 c3 -5 8 -10 11 -10 2 0 4 5 4 10 0 6 -5 10 -11 10 -5 0 -7
-4 -4 -10z"/>
<path d="M1689 553 c-13 -16 -12 -17 4 -4 16 13 21 21 13 21 -2 0 -10 -8 -17
-17z"/>
</g>
</svg>
