<?xml version="1.0" standalone="no"?>
<!DOCTYPE svg PUBLIC "-//W3C//DTD SVG 20010904//EN"
 "http://www.w3.org/TR/2001/REC-SVG-20010904/DTD/svg10.dtd">
<svg version="1.0" xmlns="http://www.w3.org/2000/svg"
 width="1024px" height="1024px" viewBox="0 0 1141.000000 1500.000000"
 preserveAspectRatio="xMidYMid meet">

<g transform="translate(0.000000,1500.000000) scale(0.100000,-0.100000)"
fill="#000000" stroke="none">
<path d="M4635 14979 c-148 -16 -266 -39 -395 -75 -84 -24 -228 -74 -258 -90
-15 -8 -31 -14 -35 -14 -7 0 -100 -41 -177 -78 -19 -9 -36 -20 -38 -24 -2 -5
-8 -8 -14 -8 -21 0 -336 -202 -358 -229 -3 -3 -27 -24 -55 -46 -27 -22 -63
-51 -80 -65 -51 -43 -208 -203 -255 -259 -25 -30 -52 -62 -60 -71 -70 -76
-222 -322 -293 -470 -86 -183 -128 -302 -172 -490 -40 -175 -55 -465 -35 -700
32 -391 43 -489 101 -885 l12 -80 -30 -45 c-35 -52 -55 -94 -77 -167 -24 -79
-24 -785 1 -876 48 -177 162 -299 340 -364 53 -19 83 -23 181 -23 l116 0 27
-32 c25 -28 28 -42 34 -137 26 -387 117 -720 289 -1051 22 -41 44 -85 50 -97
6 -13 14 -23 19 -23 4 0 7 -5 7 -12 0 -11 116 -191 145 -225 5 -7 15 -18 20
-25 146 -188 315 -361 485 -494 86 -68 290 -204 306 -204 7 0 14 -4 16 -8 2
-7 201 -107 263 -133 11 -4 41 -17 67 -28 26 -12 52 -21 57 -21 12 0 3 -321
-9 -355 -6 -15 -36 -29 -116 -54 -60 -19 -147 -46 -194 -61 -47 -15 -139 -44
-205 -65 -66 -21 -172 -54 -235 -75 -63 -21 -152 -49 -198 -64 -135 -42 -157
-59 -156 -120 0 -23 3 -49 8 -58 5 -11 4 -18 -2 -18 -18 0 -130 -52 -361 -167
-246 -123 -256 -128 -413 -220 -59 -35 -110 -63 -113 -63 -3 0 -11 -5 -18 -10
-22 -19 -119 -80 -127 -80 -5 0 -10 -4 -12 -8 -1 -4 -21 -19 -43 -32 -22 -13
-44 -28 -50 -33 -5 -5 -55 -39 -110 -77 -55 -38 -104 -72 -110 -77 -5 -4 -41
-33 -80 -63 -38 -30 -77 -62 -86 -70 -8 -8 -40 -35 -70 -60 -72 -59 -293 -281
-349 -349 -25 -30 -52 -62 -60 -70 -8 -9 -26 -32 -40 -51 -13 -19 -31 -41 -38
-49 -20 -20 -192 -278 -199 -299 -4 -9 -9 -19 -13 -22 -8 -6 -158 -308 -181
-365 -9 -22 -31 -83 -49 -135 -17 -52 -36 -104 -41 -115 -33 -74 -110 -426
-135 -620 -32 -247 -34 -356 -34 -1891 l0 -1561 27 -29 27 -29 4730 0 4731 0
25 25 c22 22 25 36 29 102 l3 78 69 0 c59 0 69 2 68 18 0 10 -3 12 -6 5 -3 -9
-27 -13 -69 -13 l-64 0 0 34 c0 19 5 38 10 41 6 3 10 11 10 16 0 6 -3 8 -7 6
-5 -3 -9 99 -10 226 -2 175 0 233 10 239 9 6 9 8 0 8 -10 0 -13 254 -13 1192
0 668 -5 1246 -10 1313 -21 259 -63 521 -115 720 -9 33 -20 78 -26 100 -5 22
-13 49 -18 60 -4 11 -19 54 -32 95 -13 41 -26 80 -29 85 -4 6 -15 33 -25 60
-31 88 -123 283 -189 401 -72 128 -232 363 -296 433 -8 9 -33 39 -55 66 -53
66 -263 276 -345 345 -36 30 -67 58 -70 61 -18 21 -278 211 -390 286 -156 103
-353 223 -368 223 -6 0 -12 3 -14 8 -8 17 -424 224 -553 273 -27 11 -59 24
-70 28 -11 5 -29 12 -39 15 -15 5 -17 9 -8 18 18 18 14 80 -6 104 -20 25 -68
49 -114 59 -18 4 -37 11 -43 15 -5 4 -26 11 -45 15 -19 4 -41 11 -50 15 -8 4
-49 18 -90 30 -41 12 -82 26 -90 30 -9 4 -31 11 -50 15 -19 4 -41 11 -50 15
-8 4 -49 18 -90 30 -41 13 -127 40 -190 60 -63 21 -149 47 -190 59 -41 12 -83
26 -92 32 -10 5 -28 9 -41 9 -27 0 -23 -18 -53 229 -8 68 -17 127 -19 131 -5
8 20 22 90 49 146 55 443 223 513 288 7 7 17 13 20 13 4 0 18 10 32 23 14 12
57 47 95 78 81 65 78 63 210 200 151 158 221 247 345 442 28 43 50 82 50 87 0
4 3 10 8 12 7 3 83 153 120 238 96 219 180 540 202 769 6 58 16 112 23 122 6
9 37 50 67 93 l54 76 106 0 c80 0 121 5 164 20 143 49 242 133 306 258 58 114
60 135 60 547 0 412 -2 433 -60 547 -28 54 -44 77 -97 136 -26 28 -26 29 -13
92 24 111 83 467 116 695 54 378 67 651 40 808 -19 108 -44 216 -56 237 -4 9
-11 30 -15 49 -4 18 -13 44 -21 59 -8 15 -14 31 -14 35 0 7 -51 125 -69 157
-38 71 -84 151 -94 164 -4 6 -23 34 -40 61 -42 63 -107 156 -121 171 -6 7 -31
36 -56 65 -86 104 -269 277 -385 365 -27 21 -52 40 -55 44 -3 3 -39 28 -80 56
-292 200 -626 353 -925 424 -49 12 -108 25 -130 31 -46 11 -147 26 -255 39
-91 11 -2106 10 -2205 -1z m2180 -239 c186 -20 463 -82 570 -129 11 -5 43 -17
70 -26 60 -21 263 -113 275 -125 3 -3 28 -16 55 -30 28 -14 52 -28 53 -32 2
-5 8 -8 13 -8 14 0 242 -153 264 -176 5 -6 25 -21 42 -33 101 -69 304 -275
413 -420 14 -18 30 -38 35 -44 24 -27 105 -157 138 -222 69 -133 90 -186 147
-370 5 -16 16 -75 26 -130 33 -197 2 -542 -100 -1135 -20 -117 -46 -274 -46
-281 0 -3 -69 -5 -152 -5 -84 0 -165 -3 -180 -7 l-28 -7 0 370 c0 320 -2 378
-17 423 -19 61 -95 211 -118 233 -8 8 -15 19 -15 23 0 11 -130 141 -141 141
-4 0 -14 6 -21 13 -21 20 -137 74 -203 94 -87 25 -374 25 -500 0 -97 -20 -304
-72 -345 -86 -14 -5 -50 -16 -80 -25 -30 -9 -86 -26 -125 -37 -38 -12 -77 -25
-85 -29 -9 -4 -31 -11 -50 -15 -19 -4 -41 -11 -50 -15 -8 -4 -49 -18 -90 -30
-41 -12 -86 -26 -100 -31 -63 -22 -267 -70 -380 -89 -141 -24 -382 -29 -504
-10 -39 6 -114 17 -166 25 -157 24 -345 68 -647 151 -373 103 -528 140 -733
175 -36 7 -144 12 -240 13 -199 1 -255 -10 -378 -71 -66 -33 -202 -150 -202
-174 0 -4 -6 -14 -13 -21 -18 -18 -72 -133 -91 -192 -29 -89 -39 -265 -32
-551 l7 -270 -135 -1 c-86 0 -145 -5 -166 -14 -20 -8 -35 -9 -41 -3 -14 14
-59 347 -79 588 -6 66 -15 167 -20 225 -26 275 -4 526 70 785 15 54 42 128 50
140 4 6 13 28 20 50 22 70 158 324 202 380 5 6 36 48 71 95 34 47 76 100 92
119 57 66 210 217 265 261 30 25 64 53 75 63 24 22 223 155 280 187 280 159
565 253 875 289 90 11 2066 12 2165 1z m1040 -2126 c123 -43 205 -118 269
-248 l46 -92 0 -481 c0 -466 1 -481 20 -506 41 -52 131 -59 180 -14 49 44 115
62 235 61 98 0 115 -3 160 -26 81 -42 113 -79 150 -172 22 -57 22 -725 0 -782
-37 -92 -60 -120 -138 -164 -51 -29 -59 -30 -174 -30 -129 0 -168 10 -230 56
-41 31 -82 39 -127 24 -70 -23 -76 -41 -76 -228 0 -162 -21 -433 -39 -502 -5
-19 -12 -55 -16 -80 -14 -85 -78 -309 -105 -365 -5 -11 -19 -44 -30 -73 -24
-63 -84 -187 -125 -257 -44 -77 -171 -266 -200 -300 -15 -16 -43 -51 -63 -77
-61 -81 -272 -279 -382 -361 -58 -42 -109 -80 -115 -85 -31 -25 -195 -117
-290 -164 -141 -69 -267 -117 -405 -154 -106 -29 -180 -44 -366 -74 -111 -18
-464 -12 -609 10 -158 24 -232 38 -265 50 -14 5 -59 18 -100 30 -41 12 -89 28
-107 36 -17 8 -36 14 -42 14 -6 0 -19 4 -29 10 -9 5 -35 17 -57 26 -74 30
-250 118 -253 126 -2 5 -9 8 -16 8 -12 0 -245 154 -256 169 -3 4 -20 17 -37
29 -75 52 -259 230 -328 317 -22 28 -43 52 -46 55 -23 19 -169 226 -169 240 0
4 -3 10 -7 12 -14 6 -142 252 -180 343 -68 165 -106 293 -139 465 -29 151 -34
209 -40 430 -7 247 -13 273 -65 303 -42 23 -76 22 -143 -8 -50 -22 -70 -25
-177 -25 -106 0 -125 3 -167 24 -77 39 -118 86 -147 168 -12 35 -15 109 -15
401 0 196 4 365 9 375 4 9 17 35 27 56 25 52 74 99 132 127 64 31 241 33 317
5 28 -11 54 -23 60 -28 5 -4 25 -8 45 -8 27 0 47 9 76 34 46 39 43 1 24 428
-15 341 -7 532 27 619 40 102 108 177 201 222 77 37 299 46 458 18 158 -28
408 -88 659 -157 381 -104 644 -163 825 -185 52 -6 98 -13 102 -15 4 -3 94 -5
200 -5 237 -1 403 25 663 100 148 43 189 56 250 76 66 21 254 80 355 110 148
45 319 85 445 105 83 14 283 4 340 -16z m-1310 -5444 c10 -69 19 -152 22 -186
l5 -60 -48 -40 c-26 -21 -58 -48 -70 -59 -13 -11 -51 -42 -86 -70 -35 -27 -65
-52 -68 -55 -3 -3 -45 -37 -95 -75 -49 -38 -92 -72 -95 -75 -3 -3 -23 -18 -46
-33 -22 -15 -49 -35 -60 -45 -25 -23 -201 -142 -209 -142 -7 0 -156 97 -190
124 -11 9 -60 46 -110 82 -49 37 -95 72 -102 78 -8 6 -19 16 -26 21 -7 6 -43
35 -82 65 -75 59 -105 83 -141 115 -12 11 -46 38 -74 60 l-52 40 6 165 c4 91
9 193 12 227 6 54 8 61 23 54 36 -20 305 -69 441 -81 211 -18 523 -9 685 20
103 19 248 52 290 65 l40 13 7 -41 c4 -23 14 -98 23 -167z m390 -351 c6 -4 26
-10 45 -14 19 -4 41 -11 50 -15 8 -4 49 -18 90 -30 41 -13 127 -40 190 -60 63
-21 169 -54 235 -75 66 -21 123 -40 127 -42 7 -4 -9 -41 -22 -53 -3 -3 -25
-34 -48 -70 -23 -36 -45 -69 -50 -75 -4 -5 -19 -28 -32 -50 -13 -22 -27 -42
-30 -45 -3 -3 -17 -23 -30 -45 -13 -22 -27 -42 -30 -45 -3 -3 -17 -23 -30 -45
-13 -22 -26 -42 -29 -45 -13 -12 -111 -162 -111 -170 0 -4 -3 -10 -7 -12 -5
-1 -26 -30 -48 -63 -22 -33 -42 -62 -46 -65 -3 -3 -16 -23 -29 -45 -13 -22
-27 -42 -30 -45 -3 -3 -17 -23 -30 -45 -13 -22 -27 -42 -30 -45 -3 -3 -17 -23
-30 -45 -13 -22 -26 -42 -29 -45 -4 -3 -21 -27 -38 -53 l-33 -48 0 -437 0
-437 -410 -410 c-225 -225 -410 -403 -410 -396 0 8 4 28 10 45 5 17 26 99 45
181 20 83 40 166 45 185 6 19 26 103 45 185 19 83 40 166 45 185 5 19 26 103
45 185 19 83 40 166 45 185 6 19 17 67 25 105 15 69 32 144 61 260 8 33 21 87
29 120 7 33 20 87 28 120 9 33 23 92 32 130 9 39 23 96 31 128 25 101 42 170
59 242 9 39 23 95 30 125 7 30 21 87 30 125 17 71 32 133 60 248 9 34 22 89
30 122 57 249 46 224 98 211 23 -6 47 -14 52 -17z m-2112 -6 c6 -32 38 -165
81 -340 16 -66 40 -166 55 -233 6 -25 15 -61 20 -80 6 -19 19 -75 31 -125 11
-49 25 -106 30 -125 5 -19 26 -102 45 -185 19 -82 40 -166 45 -185 6 -19 15
-55 20 -80 8 -41 28 -125 66 -285 8 -33 19 -80 24 -105 5 -25 14 -61 20 -80 5
-19 26 -102 45 -185 19 -82 40 -166 45 -185 5 -19 26 -102 45 -185 19 -82 39
-166 45 -185 5 -19 18 -75 30 -125 11 -49 25 -106 30 -125 13 -45 28 -109 44
-185 6 -33 15 -66 20 -73 4 -6 5 -12 3 -12 -2 0 -91 88 -198 196 -107 108
-229 231 -273 273 -43 42 -139 136 -212 209 l-134 134 0 435 0 436 -148 221
c-81 122 -231 345 -332 496 -101 151 -188 277 -192 278 -4 2 -8 8 -8 13 0 9
-37 67 -50 79 -15 13 -48 80 -42 83 4 2 41 14 82 27 41 12 82 26 90 30 9 4 31
11 50 15 19 4 41 11 50 15 8 4 38 14 65 22 127 39 383 121 415 133 59 23 87
19 93 -12z m1772 -150 c-4 -16 -13 -53 -21 -83 -36 -154 -47 -200 -59 -250 -8
-30 -21 -84 -30 -120 -9 -36 -20 -85 -25 -110 -5 -25 -14 -61 -19 -80 -6 -19
-19 -73 -30 -120 -56 -241 -75 -310 -82 -308 -7 3 -290 470 -328 543 -9 16
-19 32 -22 35 -28 23 -2 51 135 142 10 7 24 18 30 23 6 6 27 22 46 35 19 13
40 29 47 35 14 11 11 9 108 85 39 30 72 57 75 60 3 3 37 30 75 60 39 30 76 60
83 67 20 20 25 16 17 -14z m-1490 -64 c11 -10 40 -34 65 -54 25 -20 54 -44 65
-53 55 -45 269 -204 340 -252 44 -29 82 -54 84 -56 2 -2 -1 -9 -6 -16 -6 -7
-27 -44 -48 -83 -21 -38 -43 -79 -49 -90 -16 -30 -109 -178 -119 -190 -4 -5
-33 -50 -64 -98 -31 -49 -59 -85 -63 -80 -4 4 -22 71 -39 148 -18 77 -37 151
-41 165 -5 14 -20 79 -35 145 -14 66 -30 136 -36 155 -5 19 -25 103 -44 185
-19 83 -39 162 -44 178 -10 29 -5 29 34 -4z m-1220 -247 c6 -4 43 -56 82 -117
40 -60 77 -115 83 -122 5 -7 10 -15 10 -18 0 -6 40 -66 51 -75 3 -3 16 -23 29
-45 13 -22 27 -42 30 -45 3 -3 17 -23 30 -45 13 -22 26 -42 29 -45 4 -3 37
-52 76 -110 38 -58 72 -107 75 -110 3 -3 17 -23 30 -45 13 -22 27 -42 30 -45
3 -3 17 -23 30 -45 13 -22 27 -42 30 -45 3 -3 16 -21 28 -41 22 -36 22 -41 22
-475 0 -360 3 -443 14 -459 8 -11 264 -271 571 -577 466 -467 562 -558 591
-564 l34 -6 0 -1534 0 -1534 -1475 0 -1475 0 0 1598 c0 1068 -4 1609 -10 1634
-20 72 -98 92 -151 39 l-29 -29 0 -1621 0 -1621 -690 0 -690 0 1 1468 c0 807
4 1514 9 1572 12 131 36 313 54 405 8 39 19 97 26 130 6 33 15 74 20 90 5 17
19 64 30 105 12 41 25 84 30 95 4 11 16 43 25 70 10 28 23 64 30 80 7 17 30
70 51 120 21 49 56 123 78 165 21 41 44 85 50 97 6 13 14 23 19 23 4 0 7 6 7
14 0 8 6 21 13 28 7 7 28 38 46 68 35 58 161 224 227 300 46 53 287 294 329
330 17 14 55 47 87 73 31 26 114 90 185 142 70 52 133 98 138 103 6 4 28 19
50 32 22 13 42 27 45 30 10 11 141 90 151 90 5 0 9 4 9 9 0 5 10 13 23 17 12
4 24 9 27 13 3 3 16 12 29 20 77 43 122 68 176 98 93 52 505 257 549 273 22 8
56 23 75 32 43 20 43 20 56 10z m3987 -27 c51 -20 102 -40 113 -45 11 -5 43
-19 70 -30 130 -56 400 -198 575 -303 140 -84 405 -259 420 -278 3 -4 37 -30
75 -60 78 -59 99 -77 194 -164 221 -201 430 -450 561 -670 49 -82 170 -317
170 -331 0 -3 7 -20 15 -37 22 -49 68 -173 94 -257 13 -41 28 -84 32 -95 4
-11 13 -42 19 -70 34 -151 42 -187 55 -260 8 -44 19 -118 25 -165 6 -47 16
-114 22 -150 16 -90 24 -2870 8 -2870 -6 0 -9 3 -7 7 2 5 -4 16 -15 25 -17 17
-18 17 -18 -2 0 -10 10 -24 21 -31 17 -9 19 -13 8 -20 -11 -7 -11 -9 3 -9 14
0 16 -16 17 -130 l2 -130 -796 0 -795 0 0 1565 c0 1443 -1 1567 -17 1599 -29
63 -110 72 -159 19 l-24 -26 0 -1578 0 -1579 -1290 0 -1290 0 0 1538 0 1538
560 560 c435 434 562 567 570 594 6 21 10 203 10 454 l0 419 27 46 c14 25 29
48 33 51 3 3 17 23 30 45 13 22 26 42 29 45 14 13 51 70 51 80 0 5 3 10 8 10
4 0 16 17 27 37 11 20 25 41 30 47 6 6 28 38 50 71 22 33 42 62 45 65 4 3 17
23 30 45 13 22 27 42 30 45 3 3 17 23 30 45 13 22 27 42 30 45 3 3 19 28 35
55 15 28 31 52 35 55 3 3 17 23 30 45 13 22 26 42 29 45 14 13 51 70 51 80 0
5 4 10 9 10 5 0 13 9 16 20 3 11 10 20 15 20 4 0 50 -16 102 -35z m-2029 -398
c9 -18 27 -49 41 -70 14 -21 26 -42 26 -47 0 -6 5 -10 10 -10 6 0 10 -5 10
-11 0 -6 43 -82 95 -169 52 -87 95 -161 95 -164 0 -3 -4 -6 -10 -6 -5 0 -58
-23 -117 -51 -102 -48 -151 -70 -163 -75 -3 -2 -19 4 -35 11 -79 36 -184 84
-222 100 -39 17 -41 19 -30 44 6 14 14 28 17 31 3 3 16 28 30 55 14 28 28 52
33 53 4 2 7 8 7 13 0 4 20 43 45 85 25 41 45 78 45 81 0 10 95 163 101 163 4
0 14 -15 22 -33z m398 -734 c-13 -49 -16 -53 -22 -32 -18 62 -11 80 32 88 4 0
-1 -25 -10 -56z m-807 41 c13 -5 16 -23 16 -92 0 -47 -3 -83 -6 -79 -3 3 -12
32 -19 64 -7 32 -16 70 -20 86 -7 28 -1 32 29 21z m562 -190 c24 -147 44 -263
59 -349 30 -163 30 -163 -5 -265 -17 -52 -35 -104 -40 -115 -5 -11 -19 -51
-31 -90 -12 -38 -26 -74 -30 -80 -3 -5 -10 -26 -14 -45 -4 -19 -11 -41 -16
-50 -9 -15 -27 -68 -96 -273 -39 -115 -45 -118 -63 -27 -7 30 -16 69 -21 85
-5 17 -18 69 -29 116 -19 81 -20 123 -20 623 0 295 4 536 8 536 5 0 23 -7 41
-16 57 -28 101 -28 166 0 33 14 65 24 70 22 6 -1 15 -34 21 -72z"/>
<path d="M4345 11781 c-110 -18 -213 -44 -270 -71 -11 -5 -38 -17 -60 -26 -47
-21 -155 -83 -171 -98 -7 -6 -24 -20 -40 -31 -133 -95 -259 -247 -341 -415
-132 -267 -148 -616 -43 -898 27 -70 73 -166 83 -170 4 -2 7 -8 7 -14 0 -11
57 -97 74 -113 6 -5 23 -26 38 -46 39 -52 116 -124 194 -180 38 -27 74 -53 81
-59 7 -5 14 -10 17 -10 3 0 27 -13 53 -28 60 -36 194 -84 298 -108 100 -22
350 -26 440 -5 74 16 195 51 215 62 8 4 33 16 55 25 102 44 214 122 313 219
175 170 263 325 331 583 l12 42 138 0 139 0 5 -32 c10 -61 29 -133 38 -142 5
-6 9 -17 9 -25 0 -21 79 -176 120 -237 62 -92 140 -179 215 -239 52 -42 65
-52 89 -72 8 -7 19 -13 24 -13 5 0 14 -6 20 -13 15 -17 124 -72 206 -102 142
-53 229 -68 401 -68 161 -1 234 10 355 50 89 30 190 75 190 85 0 4 6 8 13 8
45 0 279 203 364 315 82 109 161 278 199 425 27 106 28 412 1 515 -58 225
-160 407 -313 559 -154 155 -330 252 -564 311 -85 21 -296 30 -385 16 -129
-20 -190 -33 -199 -42 -6 -5 -16 -9 -24 -9 -12 0 -56 -18 -132 -53 -49 -22
-156 -87 -184 -112 -16 -14 -32 -25 -36 -25 -15 0 -155 -147 -207 -217 -68
-92 -134 -217 -162 -309 -39 -123 -41 -130 -41 -152 0 -22 -3 -22 -140 -22
l-139 0 -12 43 c-38 140 -56 191 -97 272 -25 50 -48 92 -52 95 -3 3 -22 30
-43 61 -41 60 -136 162 -202 218 -131 110 -285 185 -485 236 -73 19 -315 28
-395 16z m365 -256 c61 -17 133 -43 170 -62 14 -7 31 -13 38 -13 6 0 12 -4 12
-10 0 -5 5 -10 11 -10 14 0 91 -53 152 -104 27 -23 73 -72 103 -111 30 -38 59
-76 65 -83 28 -34 100 -206 119 -287 36 -146 21 -391 -30 -510 -5 -11 -19 -45
-33 -76 -82 -188 -277 -377 -467 -453 -25 -10 -54 -22 -65 -27 -11 -4 -51 -16
-90 -26 -83 -20 -309 -24 -371 -6 -21 7 -72 22 -112 34 -86 25 -160 63 -244
125 -61 45 -170 151 -198 194 -8 12 -23 33 -32 45 -10 13 -18 28 -18 33 0 6
-3 12 -7 14 -31 13 -100 223 -115 344 -37 321 88 617 352 829 107 86 271 154
435 179 56 8 270 -4 325 -19z m2540 0 c232 -64 413 -192 537 -379 39 -60 59
-98 103 -201 41 -95 63 -330 42 -445 -15 -77 -31 -141 -42 -165 -5 -11 -18
-41 -29 -67 -76 -181 -290 -394 -461 -458 -19 -7 -48 -19 -65 -25 -128 -53
-356 -66 -505 -30 -41 10 -79 22 -85 26 -5 5 -16 9 -25 9 -8 0 -46 16 -83 35
-338 174 -527 503 -504 880 12 196 98 400 226 539 55 59 114 116 121 116 4 0
18 9 31 20 13 11 29 23 34 27 14 12 154 79 190 91 28 10 129 35 185 46 48 9
275 -4 330 -19z"/>
<path d="M4648 11248 c-87 -80 -247 -228 -273 -253 -17 -16 -75 -70 -129 -120
-54 -49 -139 -129 -187 -176 -87 -84 -89 -87 -89 -133 0 -85 69 -139 149 -116
29 8 139 101 266 225 17 17 75 71 129 120 54 50 115 106 135 125 21 19 64 60
97 90 72 67 94 100 94 141 0 94 -125 157 -192 97z"/>
<path d="M4881 10764 c-12 -9 -37 -30 -55 -48 -37 -36 -255 -239 -335 -312
-30 -27 -79 -74 -111 -104 -31 -30 -79 -75 -107 -100 -50 -45 -83 -94 -83
-125 0 -37 39 -92 79 -110 37 -16 46 -17 82 -5 22 8 43 18 47 24 4 6 34 36 67
65 67 62 312 290 360 336 17 17 75 70 128 118 109 100 127 134 108 198 -16 53
-52 79 -110 79 -27 0 -56 -7 -70 -16z"/>
<path d="M7099 11282 c-23 -15 -189 -167 -314 -287 -23 -22 -86 -80 -140 -130
-232 -211 -255 -241 -233 -307 23 -68 95 -102 159 -75 19 8 57 36 85 63 28 27
100 94 160 149 60 55 120 111 134 125 14 14 68 63 120 110 197 178 220 210
205 280 -4 17 -22 43 -43 60 -42 35 -91 39 -133 12z"/>
<path d="M7289 10764 c-30 -26 -70 -63 -90 -83 -19 -20 -55 -54 -80 -75 -67
-59 -281 -259 -386 -361 -93 -91 -93 -91 -93 -140 1 -52 14 -76 60 -108 55
-38 105 -17 221 94 31 30 81 77 110 104 387 358 465 434 474 463 11 38 -4 89
-36 122 -25 25 -38 30 -78 30 -42 0 -54 -5 -102 -46z"/>
<path d="M5220 2406 c-124 -35 -200 -133 -200 -260 0 -158 108 -266 265 -266
103 0 172 40 233 133 24 38 27 51 27 132 0 85 -2 93 -33 140 -43 64 -93 99
-169 119 -70 18 -64 18 -123 2z"/>
<path d="M5180 1202 c-67 -33 -113 -78 -142 -141 -17 -37 -20 -60 -16 -126 4
-70 8 -87 33 -121 53 -71 90 -98 168 -121 43 -13 60 -13 107 -3 75 17 144 64
182 125 42 67 51 169 20 238 -47 105 -140 167 -250 166 -41 0 -81 -7 -102 -17z"/>
<path d="M10081 834 c0 -11 3 -14 6 -6 3 7 2 16 -1 19 -3 4 -6 -2 -5 -13z"/>
<path d="M10155 841 c-4 -7 0 -8 11 -4 14 5 16 2 12 -21 -4 -18 -2 -24 4 -18
12 12 7 44 -9 49 -6 2 -14 -1 -18 -6z"/>
<path d="M10280 829 c0 -5 5 -7 10 -4 6 3 10 8 10 11 0 2 -4 4 -10 4 -5 0 -10
-5 -10 -11z"/>
<path d="M10071 794 c0 -11 3 -14 6 -6 3 7 2 16 -1 19 -3 4 -6 -2 -5 -13z"/>
<path d="M10283 713 c-16 -6 -17 -33 -2 -53 8 -12 9 -10 4 8 -5 17 -2 22 12
23 10 0 13 3 5 6 -6 2 -10 9 -6 14 6 10 5 10 -13 2z"/>
<path d="M10100 690 c-8 -5 -12 -11 -10 -14 3 -2 14 2 24 10 22 15 10 19 -14
4z"/>
<path d="M10193 690 c-13 -5 -23 -12 -23 -15 0 -9 16 -5 36 10 22 16 19 18
-13 5z"/>
<path d="M10284 620 c2 -22 36 -26 35 -3 0 10 -3 13 -6 6 -2 -7 -8 -13 -13
-13 -5 0 -10 6 -13 13 -2 7 -3 6 -3 -3z"/>
<path d="M10231 548 c-2 -30 -42 -58 -85 -59 -32 -2 -35 -3 -12 -6 15 -3 39
-2 52 1 27 7 58 49 51 68 -4 8 -6 7 -6 -4z"/>
<path d="M10213 438 c-14 -18 -23 -59 -12 -52 5 3 9 14 9 24 0 13 10 22 33 29
30 9 30 9 6 10 -15 1 -31 -5 -36 -11z"/>
<path d="M10066 411 c-12 -13 -16 -30 -13 -53 l4 -33 1 36 c2 38 14 54 47 62
19 4 19 5 -1 6 -11 0 -29 -8 -38 -18z"/>
<path d="M10129 413 c-13 -16 -12 -17 4 -4 16 13 21 21 13 21 -2 0 -10 -8 -17
-17z"/>
<path d="M10230 415 c-7 -9 -11 -17 -9 -20 3 -2 10 5 17 15 14 24 10 26 -8 5z"/>
<path d="M10284 391 c4 -6 0 -25 -8 -43 -19 -38 -20 -43 -3 -26 20 19 29 65
15 74 -7 4 -8 3 -4 -5z"/>
<path d="M10201 353 c-1 -13 8 -27 19 -33 23 -12 29 4 6 17 -7 4 -16 15 -19
23 -4 10 -6 8 -6 -7z"/>
<path d="M10311 354 c0 -11 3 -14 6 -6 3 7 2 16 -1 19 -3 4 -6 -2 -5 -13z"/>
<path d="M10285 310 c-16 -17 -16 -20 -3 -15 9 4 19 13 22 21 7 19 2 18 -19
-6z"/>
<path d="M10110 304 c-23 -13 -24 -14 -4 -14 12 0 27 7 34 15 15 18 4 18 -30
-1z"/>
<path d="M10147 295 c-29 -26 -28 -32 2 -15 10 5 21 16 25 25 7 19 6 19 -27
-10z"/>
<path d="M10865 841 c-3 -6 0 -8 9 -5 9 4 16 -2 19 -18 5 -23 5 -23 4 1 -2 26
-21 39 -32 22z"/>
<path d="M10607 825 c-4 -8 -3 -16 1 -19 4 -3 9 4 9 15 2 23 -3 25 -10 4z"/>
<path d="M10931 804 c0 -11 3 -14 6 -6 3 7 2 16 -1 19 -3 4 -6 -2 -5 -13z"/>
<path d="M10810 800 c-9 -6 -10 -10 -3 -10 6 0 15 5 18 10 8 12 4 12 -15 0z"/>
<path d="M10580 681 c0 -5 9 -7 20 -4 11 3 20 7 20 9 0 2 -9 4 -20 4 -11 0
-20 -4 -20 -9z"/>
<path d="M10878 683 c7 -3 16 -2 19 1 4 3 -2 6 -13 5 -11 0 -14 -3 -6 -6z"/>
<path d="M10813 673 c9 -2 23 -2 30 0 6 3 -1 5 -18 5 -16 0 -22 -2 -12 -5z"/>
<path d="M11137 618 c-10 -11 -17 -22 -14 -24 2 -2 12 5 22 16 23 26 16 33 -8
8z"/>
<path d="M10679 615 c-8 -9 -35 -19 -60 -24 -32 -6 -36 -9 -16 -10 33 -1 97
24 97 38 0 14 -3 14 -21 -4z"/>
<path d="M10845 590 l-30 -8 27 -1 c15 0 30 4 33 9 3 6 5 9 3 9 -2 -1 -16 -5
-33 -9z"/>
<path d="M11031 574 c0 -11 3 -14 6 -6 3 7 2 16 -1 19 -3 4 -6 -2 -5 -13z"/>
<path d="M10908 515 c-3 -14 -1 -25 3 -25 5 0 9 11 9 25 0 14 -2 25 -4 25 -2
0 -6 -11 -8 -25z"/>
<path d="M11020 511 c0 -6 -17 -12 -37 -14 l-38 -4 43 -1 c31 -2 42 2 42 13 0
8 -2 15 -5 15 -3 0 -5 -4 -5 -9z"/>
<path d="M10778 483 c18 -2 45 -2 60 0 15 2 0 4 -33 4 -33 0 -45 -2 -27 -4z"/>
<path d="M11108 473 c6 -2 18 -2 25 0 6 3 1 5 -13 5 -14 0 -19 -2 -12 -5z"/>
<path d="M10688 423 c7 -3 16 -2 19 1 4 3 -2 6 -13 5 -11 0 -14 -3 -6 -6z"/>
<path d="M10817 368 c8 -44 13 -48 13 -10 0 17 -4 34 -10 37 -6 4 -7 -6 -3
-27z"/>
<path d="M11148 393 c6 -2 18 -2 25 0 6 3 1 5 -13 5 -14 0 -19 -2 -12 -5z"/>
<path d="M10591 354 c0 -11 3 -14 6 -6 3 7 2 16 -1 19 -3 4 -6 -2 -5 -13z"/>
<path d="M10682 305 c0 -16 2 -22 5 -12 2 9 2 23 0 30 -3 6 -5 -1 -5 -18z"/>
<path d="M11149 293 c-13 -16 -12 -17 4 -4 9 7 17 15 17 17 0 8 -8 3 -21 -13z"/>
<path d="M10760 285 c-14 -8 -20 -14 -14 -15 5 0 19 7 30 15 24 18 16 19 -16
0z"/>
<path d="M10983 283 c9 -2 23 -2 30 0 6 3 -1 5 -18 5 -16 0 -22 -2 -12 -5z"/>
<path d="M11108 273 c7 -3 16 -2 19 1 4 3 -2 6 -13 5 -11 0 -14 -3 -6 -6z"/>
</g>
</svg>
